<svg width="1080" height="1080" viewBox="0 0 1080 1080" fill="none" xmlns="http://www.w3.org/2000/svg">
<circle cx="540" cy="540" r="540" fill="#2C3333"/>
<rect x="124" y="591" width="386" height="19" fill="#A5C9CA"/>
<path d="M124.105 581V500.5H146.875V581H124.105ZM163.075 581V500.5H185.845V562.945H224.255V581H163.075ZM287.085 500.5H309.855V581H287.085V500.5ZM256.035 581H233.265V500.5H256.035V581ZM288.695 549.605H254.425V530.745H288.695V549.605ZM316.257 581L351.792 500.5H374.217L409.867 581H386.177L358.347 511.655H367.317L339.487 581H316.257ZM335.692 565.36L341.557 548.57H380.887L386.752 565.36H335.692ZM416.322 581V500.5H435.067L468.417 555.24H458.527L490.957 500.5H509.702L509.932 581H489.002L488.772 532.355H492.337L468.072 573.065H457.952L432.997 532.355H437.367V581H416.322ZM598.191 582.15C591.904 582.15 586.116 581.153 580.826 579.16C575.613 577.09 571.051 574.215 567.141 570.535C563.231 566.778 560.203 562.37 558.056 557.31C555.909 552.25 554.836 546.73 554.836 540.75C554.836 534.77 555.909 529.25 558.056 524.19C560.203 519.13 563.231 514.76 567.141 511.08C571.128 507.323 575.766 504.448 581.056 502.455C586.346 500.385 592.134 499.35 598.421 499.35C605.244 499.35 611.378 500.462 616.821 502.685C622.341 504.908 626.979 508.167 630.736 512.46L621.306 521.66C618.163 518.517 614.751 516.217 611.071 514.76C607.468 513.227 603.481 512.46 599.111 512.46C594.894 512.46 590.984 513.15 587.381 514.53C583.778 515.91 580.673 517.865 578.066 520.395C575.459 522.925 573.428 525.915 571.971 529.365C570.591 532.815 569.901 536.61 569.901 540.75C569.901 544.813 570.591 548.57 571.971 552.02C573.428 555.47 575.459 558.498 578.066 561.105C580.673 563.635 583.739 565.59 587.266 566.97C590.793 568.35 594.703 569.04 598.996 569.04C602.983 569.04 606.816 568.427 610.496 567.2C614.253 565.897 617.818 563.75 621.191 560.76L629.701 571.915C625.484 575.288 620.578 577.857 614.981 579.62C609.461 581.307 603.864 582.15 598.191 582.15ZM615.556 569.96V539.83H629.701V571.915L615.556 569.96ZM685.874 581V568.58L685.069 565.935V544.2C685.069 539.983 683.804 536.725 681.274 534.425C678.744 532.048 674.911 530.86 669.774 530.86C666.324 530.86 662.912 531.397 659.539 532.47C656.242 533.543 653.444 535.038 651.144 536.955L645.509 526.49C648.806 523.96 652.716 522.082 657.239 520.855C661.839 519.552 666.592 518.9 671.499 518.9C680.392 518.9 687.254 521.047 692.084 525.34C696.991 529.557 699.444 536.112 699.444 545.005V581H685.874ZM666.554 581.805C661.954 581.805 657.929 581.038 654.479 579.505C651.029 577.895 648.346 575.71 646.429 572.95C644.589 570.113 643.669 566.932 643.669 563.405C643.669 559.955 644.474 556.85 646.084 554.09C647.771 551.33 650.492 549.145 654.249 547.535C658.006 545.925 662.989 545.12 669.199 545.12H687.024V554.665H670.234C665.327 554.665 662.031 555.47 660.344 557.08C658.657 558.613 657.814 560.53 657.814 562.83C657.814 565.437 658.849 567.507 660.919 569.04C662.989 570.573 665.864 571.34 669.544 571.34C673.071 571.34 676.214 570.535 678.974 568.925C681.811 567.315 683.842 564.938 685.069 561.795L687.484 570.42C686.104 574.023 683.612 576.822 680.009 578.815C676.482 580.808 671.997 581.805 666.554 581.805ZM717.892 581V495.67H732.267V581H717.892ZM751.135 581V495.67H765.51V581H751.135ZM813.242 581.805C806.418 581.805 800.438 580.463 795.302 577.78C790.242 575.02 786.293 571.263 783.457 566.51C780.697 561.757 779.317 556.352 779.317 550.295C779.317 544.162 780.658 538.757 783.342 534.08C786.102 529.327 789.858 525.608 794.612 522.925C799.442 520.242 804.923 518.9 811.057 518.9C817.037 518.9 822.365 520.203 827.042 522.81C831.718 525.417 835.398 529.097 838.082 533.85C840.765 538.603 842.107 544.2 842.107 550.64C842.107 551.253 842.068 551.943 841.992 552.71C841.992 553.477 841.953 554.205 841.877 554.895H790.702V545.35H834.287L828.652 548.34C828.728 544.813 828 541.708 826.467 539.025C824.933 536.342 822.825 534.233 820.142 532.7C817.535 531.167 814.507 530.4 811.057 530.4C807.53 530.4 804.425 531.167 801.742 532.7C799.135 534.233 797.065 536.38 795.532 539.14C794.075 541.823 793.347 545.005 793.347 548.685V550.985C793.347 554.665 794.19 557.923 795.877 560.76C797.563 563.597 799.94 565.782 803.007 567.315C806.073 568.848 809.6 569.615 813.587 569.615C817.037 569.615 820.142 569.078 822.902 568.005C825.662 566.932 828.115 565.245 830.262 562.945L837.967 571.8C835.207 575.02 831.718 577.512 827.502 579.275C823.362 580.962 818.608 581.805 813.242 581.805ZM855.915 581V519.59H869.6V536.495L867.99 531.55C869.83 527.41 872.705 524.267 876.615 522.12C880.602 519.973 885.547 518.9 891.45 518.9V532.585C890.837 532.432 890.262 532.355 889.725 532.355C889.188 532.278 888.652 532.24 888.115 532.24C882.672 532.24 878.34 533.85 875.12 537.07C871.9 540.213 870.29 544.928 870.29 551.215V581H855.915ZM910.95 604.115C907.96 604.115 904.97 603.617 901.98 602.62C898.99 601.623 896.499 600.243 894.505 598.48L900.255 587.9C901.712 589.203 903.36 590.238 905.2 591.005C907.04 591.772 908.919 592.155 910.835 592.155C913.442 592.155 915.55 591.503 917.16 590.2C918.77 588.897 920.265 586.712 921.645 583.645L925.21 575.595L926.36 573.87L949.59 519.59H963.39L934.64 585.945C932.724 590.545 930.577 594.187 928.2 596.87C925.9 599.553 923.294 601.432 920.38 602.505C917.544 603.578 914.4 604.115 910.95 604.115ZM923.6 583.185L895.885 519.59H910.835L933.375 572.605L923.6 583.185Z" fill="#E7F6F2"/>
</svg>
