<svg width="43" height="43" viewBox="0 0 43 43" fill="none" xmlns="http://www.w3.org/2000/svg">
<path d="M38.9688 1.00797H4.03125C3.23854 0.9999 2.47501 1.30663 1.90819 1.86086C1.34137 2.41508 1.01756 3.17153 1.00781 3.96422V39.0428C1.01932 39.8343 1.3439 40.5891 1.91053 41.1418C2.47716 41.6946 3.23969 42.0004 4.03125 41.9923H38.9688C39.7615 41.9986 40.5245 41.6909 41.0911 41.1363C41.6576 40.5817 41.9816 39.8254 41.9922 39.0327V3.95414C41.9781 3.16378 41.6525 2.41093 41.0864 1.85925C40.5202 1.30757 39.7592 1.00164 38.9688 1.00797Z" fill="#0076B2"/>
<path d="M7.07482 16.3701H13.1586V35.9452H7.07482V16.3701ZM10.1184 6.62793C10.8162 6.62793 11.4983 6.83489 12.0784 7.22263C12.6586 7.61037 13.1107 8.16146 13.3776 8.80619C13.6444 9.45093 13.7141 10.1603 13.5777 10.8447C13.4414 11.529 13.1051 12.1575 12.6114 12.6507C12.1178 13.1438 11.489 13.4795 10.8045 13.6153C10.12 13.751 9.4107 13.6806 8.76622 13.4131C8.12175 13.1457 7.57108 12.693 7.1839 12.1125C6.79671 11.532 6.5904 10.8497 6.59107 10.1519C6.59196 9.21699 6.96398 8.32066 7.62539 7.65988C8.2868 6.9991 9.18348 6.62793 10.1184 6.62793ZM16.9749 16.3701H22.8068V19.0576H22.8874C23.7004 17.519 25.6824 15.8964 28.642 15.8964C34.8031 15.883 35.9453 19.9378 35.9453 25.1952V35.9452H29.8615V26.4214C29.8615 24.1538 29.8211 21.2345 26.7003 21.2345C23.5794 21.2345 23.0486 23.707 23.0486 26.2736V35.9452H16.9749V16.3701Z" fill="white"/>
</svg>
