<svg width="43" height="43" viewBox="0 0 43 43" fill="none" xmlns="http://www.w3.org/2000/svg">
<g clip-path="url(#clip0_224_151)">
<path d="M21.5 0.532105C9.62259 0.532105 0 10.1628 0 22.0321C0 31.5364 6.15975 39.5922 14.6966 42.4343C15.7756 42.6372 16.1653 41.972 16.1653 41.3969C16.1653 40.8863 16.1532 39.5358 16.1452 37.7432C10.1614 39.0386 8.901 34.8528 8.901 34.8528C7.92141 32.3749 6.50778 31.7098 6.50778 31.7098C4.56203 30.3808 6.66231 30.409 6.66231 30.409C8.81769 30.5555 9.95181 32.6195 9.95181 32.6195C11.8693 35.909 14.9828 34.9576 16.215 34.404C16.4032 33.0186 16.9635 32.0659 17.5736 31.5351C12.8006 30.9963 7.78166 29.1486 7.78166 20.9101C7.78166 18.5572 8.61478 16.641 9.99212 15.136C9.75428 14.5971 9.02597 12.4068 10.1816 9.4452C10.1816 9.4452 11.9809 8.87142 16.0941 11.6503C17.8461 11.1732 19.6533 10.9288 21.4691 10.9233C23.2966 10.9354 25.1227 11.1746 26.8441 11.6503C30.9331 8.87142 32.7311 9.4452 32.7311 9.4452C33.8853 12.4068 33.157 14.5958 32.9474 15.136C34.3113 16.641 35.1444 18.5585 35.1444 20.9101C35.1444 29.1674 30.1188 30.9882 25.3404 31.5136C26.0876 32.1573 26.7877 33.4809 26.7877 35.4898C26.7877 38.3654 26.7608 40.682 26.7608 41.3821C26.7608 41.9411 27.137 42.613 28.2443 42.3966C36.8443 39.5842 42.9973 31.5217 42.9973 22.0308C42.9973 10.1614 33.3747 0.530762 21.4973 0.530762L21.5 0.532105Z" fill="black"/>
</g>
<defs>
<clipPath id="clip0_224_151">
<rect width="43" height="43" fill="white"/>
</clipPath>
</defs>
</svg>
