<svg width="56" height="56" viewBox="0 0 56 56" fill="none" xmlns="http://www.w3.org/2000/svg">
<path d="M23.3334 35.0001L35.4434 28.0001L23.3334 21.0001V35.0001ZM50.3067 16.7301C50.6101 17.8267 50.8201 19.2967 50.9601 21.1634C51.1234 23.0301 51.1934 24.6401 51.1934 26.0401L51.3334 28.0001C51.3334 33.1101 50.9601 36.8667 50.3067 39.2701C49.7234 41.3701 48.3701 42.7234 46.2701 43.3067C45.1734 43.6101 43.1668 43.8201 40.0868 43.9601C37.0534 44.1234 34.2768 44.1934 31.7101 44.1934L28.0001 44.3334C18.2234 44.3334 12.1334 43.9601 9.73008 43.3067C7.63008 42.7234 6.27675 41.3701 5.69341 39.2701C5.39008 38.1734 5.18008 36.7034 5.04008 34.8368C4.87675 32.9701 4.80675 31.3601 4.80675 29.9601L4.66675 28.0001C4.66675 22.8901 5.04008 19.1334 5.69341 16.7301C6.27675 14.6301 7.63008 13.2767 9.73008 12.6934C10.8267 12.3901 12.8334 12.1801 15.9134 12.0401C18.9467 11.8767 21.7234 11.8067 24.2901 11.8067L28.0001 11.6667C37.7768 11.6667 43.8668 12.0401 46.2701 12.6934C48.3701 13.2767 49.7234 14.6301 50.3067 16.7301Z" fill="black"/>
</svg>
