<svg width="43" height="43" viewBox="0 0 43 43" fill="none" xmlns="http://www.w3.org/2000/svg">
<g clip-path="url(#clip0_204_330)">
<path d="M32.9219 0H10.0781C4.51213 0 0 4.51213 0 10.0781V32.9219C0 38.4879 4.51213 43 10.0781 43H32.9219C38.4879 43 43 38.4879 43 32.9219V10.0781C43 4.51213 38.4879 0 32.9219 0Z" fill="url(#paint0_radial_204_330)"/>
<path d="M32.9219 0H10.0781C4.51213 0 0 4.51213 0 10.0781V32.9219C0 38.4879 4.51213 43 10.0781 43H32.9219C38.4879 43 43 38.4879 43 32.9219V10.0781C43 4.51213 38.4879 0 32.9219 0Z" fill="url(#paint1_radial_204_330)"/>
<path d="M21.5015 4.70312C16.9398 4.70312 16.3672 4.72311 14.5757 4.80458C12.7875 4.88655 11.5668 5.16957 10.4989 5.58496C9.39399 6.01395 8.45689 6.5879 7.52332 7.52181C6.58891 8.45555 6.01496 9.39264 5.58463 10.497C5.16806 11.5653 4.8847 12.7865 4.80424 14.5738C4.72412 16.3655 4.70312 16.9383 4.70312 21.5002C4.70312 26.062 4.72328 26.6328 4.80458 28.4243C4.88688 30.2125 5.16991 31.4332 5.58496 32.5011C6.01429 33.606 6.58824 34.5431 7.52214 35.4767C8.45555 36.4111 9.39264 36.9864 10.4967 37.4154C11.5655 37.8308 12.7863 38.1138 14.5741 38.1958C16.3659 38.2772 16.938 38.2972 21.4995 38.2972C26.0617 38.2972 26.6325 38.2772 28.424 38.1958C30.2122 38.1138 31.4342 37.8308 32.503 37.4154C33.6074 36.9864 34.5431 36.4111 35.4763 35.4767C36.4108 34.5431 36.9845 33.606 37.415 32.5016C37.8279 31.4332 38.1114 30.2122 38.1954 28.4247C38.2759 26.6331 38.2969 26.062 38.2969 21.5002C38.2969 16.9383 38.2759 16.3659 38.1954 14.5741C38.1114 12.7859 37.8279 11.5655 37.415 10.4975C36.9845 9.39264 36.4108 8.45555 35.4763 7.52181C34.5421 6.58757 33.6077 6.01362 32.502 5.58513C31.4312 5.16957 30.2099 4.88638 28.4217 4.80458C26.6299 4.72311 26.0595 4.70312 21.4963 4.70312H21.5015ZM19.9947 7.73009C20.442 7.72942 20.941 7.73009 21.5015 7.73009C25.9864 7.73009 26.5179 7.74621 28.289 7.82667C29.9267 7.90159 30.8155 8.17521 31.4076 8.40516C32.1915 8.70952 32.7504 9.0735 33.3379 9.66156C33.9258 10.2495 34.2896 10.8093 34.5948 11.5932C34.8248 12.1845 35.0988 13.0733 35.1733 14.711C35.2538 16.4818 35.2713 17.0136 35.2713 21.4963C35.2713 25.9791 35.2538 26.511 35.1733 28.2816C35.0984 29.9193 34.8248 30.8082 34.5948 31.3996C34.2905 32.1835 33.9258 32.7416 33.3379 33.3292C32.75 33.9171 32.1919 34.2809 31.4076 34.5854C30.8162 34.8164 29.9267 35.0893 28.289 35.1643C26.5182 35.2447 25.9864 35.2622 21.5015 35.2622C17.0164 35.2622 16.4848 35.2447 14.7142 35.1643C13.0765 35.0887 12.1876 34.8151 11.5951 34.5851C10.8113 34.2806 10.2513 33.9168 9.66341 33.3289C9.07552 32.741 8.7117 32.1825 8.4065 31.3982C8.17655 30.8068 7.90259 29.9179 7.82802 28.2802C7.74756 26.5095 7.73143 25.9777 7.73143 21.4921C7.73143 17.0065 7.74756 16.4776 7.82802 14.7068C7.90293 13.0691 8.17655 12.1803 8.4065 11.5882C8.71103 10.8043 9.07552 10.2444 9.66358 9.65652C10.2516 9.06863 10.8113 8.70464 11.5952 8.39961C12.1873 8.16866 13.0765 7.89571 14.7142 7.82046C16.2637 7.75041 16.8642 7.72942 19.9947 7.72589V7.73009ZM30.4677 10.519C29.3549 10.519 28.4521 11.421 28.4521 12.534C28.4521 13.6468 29.3549 14.5496 30.4677 14.5496C31.5805 14.5496 32.4833 13.6468 32.4833 12.534C32.4833 11.4212 31.5805 10.5184 30.4677 10.5184V10.519ZM21.5015 12.8741C16.7379 12.8741 12.8756 16.7364 12.8756 21.5002C12.8756 26.2639 16.7379 30.1244 21.5015 30.1244C26.2653 30.1244 30.1262 26.2639 30.1262 21.5002C30.1262 16.7366 26.2649 12.8741 21.5012 12.8741H21.5015ZM21.5015 15.9011C24.5936 15.9011 27.1006 18.4077 27.1006 21.5002C27.1006 24.5923 24.5936 27.0992 21.5015 27.0992C18.4094 27.0992 15.9026 24.5923 15.9026 21.5002C15.9026 18.4077 18.4092 15.9011 21.5015 15.9011Z" fill="white"/>
</g>
<defs>
<radialGradient id="paint0_radial_204_330" cx="0" cy="0" r="1" gradientUnits="userSpaceOnUse" gradientTransform="translate(11.4219 46.3118) rotate(-90) scale(42.6162 39.6364)">
<stop stop-color="#FFDD55"/>
<stop offset="0.1" stop-color="#FFDD55"/>
<stop offset="0.5" stop-color="#FF543E"/>
<stop offset="1" stop-color="#C837AB"/>
</radialGradient>
<radialGradient id="paint1_radial_204_330" cx="0" cy="0" r="1" gradientUnits="userSpaceOnUse" gradientTransform="translate(-7.20267 3.09751) rotate(78.681) scale(19.0497 78.5234)">
<stop stop-color="#3771C8"/>
<stop offset="0.128" stop-color="#3771C8"/>
<stop offset="1" stop-color="#6600FF" stop-opacity="0"/>
</radialGradient>
<clipPath id="clip0_204_330">
<rect width="43" height="43" fill="white"/>
</clipPath>
</defs>
</svg>
