<svg width="48" height="48" viewBox="0 0 48 48" fill="none" xmlns="http://www.w3.org/2000/svg">
<path d="M24.02 2.96997C19.856 2.96997 16.512 3.00997 16.534 3.06397C16.554 3.10397 19.95 9.06597 24.082 16.304L31.602 29.452H39.122C43.284 29.452 46.628 29.412 46.606 29.358C46.596 29.318 43.19 23.356 39.056 16.118L31.536 2.96997H24.02ZM14.5 6.42997C12.0606 10.6315 9.64055 14.8442 7.24 19.068L0 31.736L3.78 38.332L7.55 44.926L14.79 32.256L22.026 19.596L18.266 13.022C16.2 9.40797 14.51 6.44197 14.5 6.42997ZM19.018 31.736L18.612 32.432C18.384 32.828 16.692 35.776 14.852 39.006C13.728 40.9905 12.596 42.9705 11.456 44.946C11.436 44.998 17.936 45.03 25.9 45.03H40.388L43.98 38.716C45.964 35.248 47.68 32.256 47.792 32.07L48 31.736H33.502H19.018Z" fill="black"/>
</svg>
