<svg width="54" height="40" viewBox="0 0 54 40" fill="none" xmlns="http://www.w3.org/2000/svg">
<g clip-path="url(#clip0_204_324)">
<path d="M12.0584 39.803V19.3035L5.70093 13.4873L0 10.2598V36.1854C0 38.187 1.62176 39.803 3.61762 39.803H12.0584Z" fill="#4285F4"/>
<path d="M40.9985 39.8033H49.4394C51.4412 39.8033 53.057 38.1813 53.057 36.1856V10.2603L46.5998 13.957L40.9985 19.3038V39.8033Z" fill="#34A853"/>
<path d="M12.0584 19.3038L11.1934 11.294L12.0584 3.62793L26.5285 14.4806L40.9985 3.62793L41.9662 10.8802L40.9985 19.3038L26.5285 30.1564L12.0584 19.3038Z" fill="#EA4335"/>
<path d="M40.9985 3.62771V19.3036L53.057 10.2598V5.43641C53.057 0.962838 47.9502 -1.58742 44.3751 1.09548L40.9985 3.62771Z" fill="#FBBC04"/>
<path d="M0 10.2599L5.54591 14.4195L12.0584 19.3037V3.6278L8.68186 1.09557C5.10052 -1.58753 0 0.962932 0 5.4363V10.2599Z" fill="#C5221F"/>
</g>
<defs>
<clipPath id="clip0_204_324">
<rect width="53.057" height="40" fill="white"/>
</clipPath>
</defs>
</svg>
