<svg width="43" height="43" viewBox="0 0 43 43" fill="none" xmlns="http://www.w3.org/2000/svg">
<path d="M21.5 16.168C20.4454 16.168 19.4145 16.4807 18.5377 17.0666C17.6609 17.6525 16.9774 18.4852 16.5739 19.4595C16.1703 20.4338 16.0647 21.5059 16.2705 22.5402C16.4762 23.5745 16.984 24.5246 17.7297 25.2703C18.4754 26.016 19.4255 26.5238 20.4598 26.7295C21.4941 26.9353 22.5662 26.8297 23.5405 26.4261C24.5148 26.0226 25.3475 25.3391 25.9334 24.4623C26.5193 23.5855 26.832 22.5546 26.832 21.5C26.832 20.7998 26.6941 20.1064 26.4261 19.4595C26.1582 18.8126 25.7654 18.2248 25.2703 17.7297C24.7752 17.2346 24.1874 16.8418 23.5405 16.5739C22.8936 16.3059 22.2002 16.168 21.5 16.168ZM42.8495 10.9005C42.8396 9.24005 42.5338 7.59466 41.9465 6.0415C41.515 4.90471 40.8473 3.87235 39.9875 3.01255C39.1276 2.15275 38.0953 1.48504 36.9585 1.0535C35.4053 0.466222 33.76 0.160441 32.0995 0.1505C29.326 -1.44169e-07 28.509 0 21.5 0C14.491 0 13.674 -1.44169e-07 10.9005 0.1505C9.24005 0.160441 7.59466 0.466222 6.0415 1.0535C4.90471 1.48504 3.87235 2.15275 3.01255 3.01255C2.15275 3.87235 1.48504 4.90471 1.0535 6.0415C0.466222 7.59466 0.160441 9.24005 0.1505 10.9005C-1.44169e-07 13.674 0 14.491 0 21.5C0 28.509 -1.44169e-07 29.326 0.1505 32.0995C0.175289 33.7655 0.480561 35.4154 1.0535 36.98C1.48071 38.1128 2.14818 39.1397 3.01 39.99C3.86655 40.8544 4.901 41.522 6.0415 41.9465C7.59466 42.5338 9.24005 42.8396 10.9005 42.8495C13.674 43 14.491 43 21.5 43C28.509 43 29.326 43 32.0995 42.8495C33.76 42.8396 35.4053 42.5338 36.9585 41.9465C38.099 41.522 39.1334 40.8544 39.99 39.99C40.8518 39.1397 41.5193 38.1128 41.9465 36.98C42.5319 35.4189 42.8376 33.7668 42.8495 32.0995C43 29.326 43 28.509 43 21.5C43 14.491 43 13.674 42.8495 10.9005ZM37.3885 28.1005C37.3206 29.4274 37.0374 30.7345 36.55 31.9705C36.1326 33.0018 35.5121 33.9387 34.7254 34.7254C33.9387 35.5121 33.0018 36.1326 31.9705 36.55C30.7228 37.0103 29.4084 37.2645 28.079 37.3025H14.921C13.5916 37.2645 12.2772 37.0103 11.0295 36.55C9.96298 36.1545 9.00002 35.5223 8.213 34.701C7.43344 33.9301 6.83174 32.9982 6.45 31.9705C5.98935 30.7236 5.74222 29.408 5.719 28.079V14.921C5.74222 13.592 5.98935 12.2764 6.45 11.0295C6.84554 9.96298 7.47771 9.00002 8.299 8.213C9.07413 7.4387 10.0048 6.83779 11.0295 6.45C12.2772 5.98967 13.5916 5.73551 14.921 5.6975H28.079C29.4084 5.73551 30.7228 5.98967 31.9705 6.45C33.037 6.84554 34 7.47771 34.787 8.299C35.5666 9.06987 36.1683 10.0018 36.55 11.0295C37.0103 12.2772 37.2645 13.5916 37.3025 14.921V21.5C37.3025 25.929 37.453 26.3805 37.3885 28.079V28.1005ZM33.9485 12.1045C33.6925 11.41 33.2889 10.7793 32.7655 10.256C32.2422 9.73259 31.6115 9.32899 30.917 9.073C29.9634 8.74246 28.9591 8.58235 27.95 8.6H15.05C14.0358 8.60991 13.0313 8.79916 12.083 9.159C11.3991 9.40336 10.7751 9.79048 10.2525 10.2946C9.72977 10.7988 9.32038 11.4084 9.0515 12.083C8.74041 13.0408 8.5879 14.043 8.6 15.05V27.95C8.62249 28.963 8.81134 29.9653 9.159 30.917C9.41499 31.6115 9.81859 32.2422 10.342 32.7655C10.8653 33.2889 11.496 33.6925 12.1905 33.9485C13.1081 34.2848 14.0733 34.4735 15.05 34.5075H27.95C28.9642 34.4976 29.9687 34.3083 30.917 33.9485C31.6115 33.6925 32.2422 33.2889 32.7655 32.7655C33.2889 32.2422 33.6925 31.6115 33.9485 30.917C34.3083 29.9687 34.4976 28.9642 34.5075 27.95V15.05C34.5071 14.0349 34.3175 13.0287 33.9485 12.083V12.1045ZM21.5 29.713C20.4225 29.713 19.3555 29.5004 18.3603 29.0874C17.365 28.6744 16.4611 28.0691 15.7001 27.3062C14.9392 26.5432 14.3363 25.6377 13.9259 24.6414C13.5155 23.645 13.3057 22.5775 13.3085 21.5C13.3085 19.8747 13.7907 18.286 14.6941 16.9349C15.5976 15.5838 16.8815 14.5311 18.3835 13.9101C19.8855 13.2892 21.538 13.1278 23.1317 13.4464C24.7255 13.7651 26.1888 14.5494 27.3366 15.7002C28.4843 16.8509 29.2648 18.3164 29.5793 19.9109C29.8938 21.5055 29.7281 23.1576 29.1031 24.6579C28.4782 26.1583 27.4222 27.4395 26.0687 28.3393C24.7153 29.2392 23.1253 29.7173 21.5 29.713ZM30.1 14.8995C29.6247 14.8492 29.1849 14.6248 28.8652 14.2695C28.5456 13.9142 28.3687 13.4532 28.3687 12.9753C28.3687 12.4973 28.5456 12.0363 28.8652 11.681C29.1849 11.3257 29.6247 11.1013 30.1 11.051C30.5753 11.1013 31.0151 11.3257 31.3348 11.681C31.6544 12.0363 31.8313 12.4973 31.8313 12.9753C31.8313 13.4532 31.6544 13.9142 31.3348 14.2695C31.0151 14.6248 30.5753 14.8492 30.1 14.8995Z" fill="black"/>
</svg>
