<svg width="48" height="48" viewBox="0 0 48 48" fill="none" xmlns="http://www.w3.org/2000/svg">
<path d="M21 6H9C8.20435 6 7.44129 6.31607 6.87868 6.87868C6.31607 7.44129 6 8.20435 6 9V31C6 31.7956 6.31607 32.5587 6.87868 33.1213C7.44129 33.6839 8.20435 34 9 34H39C39.7956 34 40.5587 33.6839 41.1213 33.1213C41.6839 32.5587 42 31.7956 42 31V21M24 34V42" stroke="black" stroke-width="4" stroke-linecap="round" stroke-linejoin="round"/>
<path d="M32 6L28 10L32 14M38 6L42 10L38 14M14 42H34" stroke="black" stroke-width="4" stroke-linecap="round" stroke-linejoin="round"/>
</svg>
