<svg width="177" height="29" viewBox="0 0 177 29" fill="none" xmlns="http://www.w3.org/2000/svg">
<rect x="2" y="25" width="80" height="4" fill="#395B64"/>
<path d="M1.80891 23V6.2H6.56091V23H1.80891ZM9.94172 23V6.2H14.6937V19.232H22.7097V23H9.94172ZM35.8222 6.2H40.5742V23H35.8222V6.2ZM29.3422 23H24.5902V6.2H29.3422V23ZM36.1582 16.448H29.0062V12.512H36.1582V16.448ZM41.9101 23L49.3261 6.2H54.0061L61.4461 23H56.5021L50.6941 8.528H52.5661L46.7581 23H41.9101ZM45.9661 19.736L47.1901 16.232H55.3981L56.6221 19.736H45.9661ZM62.7933 23V6.2H66.7053L73.6653 17.624H71.6013L78.3693 6.2H82.2813L82.3293 23H77.9613L77.9133 12.848H78.6573L73.5933 21.344H71.4813L66.2733 12.848H67.1853V23H62.7933ZM100.749 23.24C99.4365 23.24 98.2285 23.032 97.1245 22.616C96.0365 22.184 95.0845 21.584 94.2685 20.816C93.4525 20.032 92.8205 19.112 92.3725 18.056C91.9245 17 91.7005 15.848 91.7005 14.6C91.7005 13.352 91.9245 12.2 92.3725 11.144C92.8205 10.088 93.4525 9.176 94.2685 8.408C95.1005 7.624 96.0685 7.024 97.1725 6.608C98.2765 6.176 99.4845 5.96 100.797 5.96C102.221 5.96 103.501 6.192 104.637 6.656C105.789 7.12 106.757 7.8 107.541 8.696L105.573 10.616C104.917 9.96 104.205 9.48 103.437 9.176C102.685 8.856 101.853 8.696 100.941 8.696C100.061 8.696 99.2445 8.84 98.4925 9.128C97.7405 9.416 97.0925 9.824 96.5485 10.352C96.0045 10.88 95.5805 11.504 95.2765 12.224C94.9885 12.944 94.8445 13.736 94.8445 14.6C94.8445 15.448 94.9885 16.232 95.2765 16.952C95.5805 17.672 96.0045 18.304 96.5485 18.848C97.0925 19.376 97.7325 19.784 98.4685 20.072C99.2045 20.36 100.021 20.504 100.917 20.504C101.749 20.504 102.549 20.376 103.317 20.12C104.101 19.848 104.845 19.4 105.549 18.776L107.325 21.104C106.445 21.808 105.421 22.344 104.253 22.712C103.101 23.064 101.933 23.24 100.749 23.24ZM104.373 20.696V14.408H107.325V21.104L104.373 20.696ZM119.048 23V20.408L118.88 19.856V15.32C118.88 14.44 118.616 13.76 118.088 13.28C117.56 12.784 116.76 12.536 115.688 12.536C114.968 12.536 114.256 12.648 113.552 12.872C112.864 13.096 112.28 13.408 111.8 13.808L110.624 11.624C111.312 11.096 112.128 10.704 113.072 10.448C114.032 10.176 115.024 10.04 116.048 10.04C117.904 10.04 119.336 10.488 120.344 11.384C121.368 12.264 121.88 13.632 121.88 15.488V23H119.048ZM115.016 23.168C114.056 23.168 113.216 23.008 112.496 22.688C111.776 22.352 111.216 21.896 110.816 21.32C110.432 20.728 110.24 20.064 110.24 19.328C110.24 18.608 110.408 17.96 110.744 17.384C111.096 16.808 111.664 16.352 112.448 16.016C113.232 15.68 114.272 15.512 115.568 15.512H119.288V17.504H115.784C114.76 17.504 114.072 17.672 113.72 18.008C113.368 18.328 113.192 18.728 113.192 19.208C113.192 19.752 113.408 20.184 113.84 20.504C114.272 20.824 114.872 20.984 115.64 20.984C116.376 20.984 117.032 20.816 117.608 20.48C118.2 20.144 118.624 19.648 118.88 18.992L119.384 20.792C119.096 21.544 118.576 22.128 117.824 22.544C117.088 22.96 116.152 23.168 115.016 23.168ZM125.73 23V5.192H128.73V23H125.73ZM132.667 23V5.192H135.667V23H132.667ZM145.629 23.168C144.205 23.168 142.957 22.888 141.885 22.328C140.829 21.752 140.005 20.968 139.413 19.976C138.837 18.984 138.549 17.856 138.549 16.592C138.549 15.312 138.829 14.184 139.389 13.208C139.965 12.216 140.749 11.44 141.741 10.88C142.749 10.32 143.893 10.04 145.173 10.04C146.421 10.04 147.533 10.312 148.509 10.856C149.485 11.4 150.253 12.168 150.813 13.16C151.373 14.152 151.653 15.32 151.653 16.664C151.653 16.792 151.645 16.936 151.629 17.096C151.629 17.256 151.621 17.408 151.605 17.552H140.925V15.56H150.021L148.845 16.184C148.861 15.448 148.709 14.8 148.389 14.24C148.069 13.68 147.629 13.24 147.069 12.92C146.525 12.6 145.893 12.44 145.173 12.44C144.437 12.44 143.789 12.6 143.229 12.92C142.685 13.24 142.253 13.688 141.933 14.264C141.629 14.824 141.477 15.488 141.477 16.256V16.736C141.477 17.504 141.653 18.184 142.005 18.776C142.357 19.368 142.853 19.824 143.493 20.144C144.133 20.464 144.869 20.624 145.701 20.624C146.421 20.624 147.069 20.512 147.645 20.288C148.221 20.064 148.733 19.712 149.181 19.232L150.789 21.08C150.213 21.752 149.485 22.272 148.605 22.64C147.741 22.992 146.749 23.168 145.629 23.168ZM154.534 23V10.184H157.39V13.712L157.054 12.68C157.438 11.816 158.038 11.16 158.854 10.712C159.686 10.264 160.718 10.04 161.95 10.04V12.896C161.822 12.864 161.702 12.848 161.59 12.848C161.478 12.832 161.366 12.824 161.254 12.824C160.118 12.824 159.214 13.16 158.542 13.832C157.87 14.488 157.534 15.472 157.534 16.784V23H154.534ZM166.02 27.824C165.396 27.824 164.772 27.72 164.148 27.512C163.524 27.304 163.004 27.016 162.588 26.648L163.788 24.44C164.092 24.712 164.436 24.928 164.82 25.088C165.204 25.248 165.596 25.328 165.996 25.328C166.54 25.328 166.98 25.192 167.316 24.92C167.652 24.648 167.964 24.192 168.252 23.552L168.996 21.872L169.236 21.512L174.084 10.184H176.964L170.964 24.032C170.564 24.992 170.116 25.752 169.62 26.312C169.14 26.872 168.596 27.264 167.988 27.488C167.396 27.712 166.74 27.824 166.02 27.824ZM168.66 23.456L162.876 10.184H165.996L170.7 21.248L168.66 23.456Z" fill="#2C3333"/>
</svg>
